HIERARCHY
ROOT Hips
{
	OFFSET 0.00 0.00 0.00
	CHANNELS 6 Xposition Yposition Zposition Zrotation Yrotation Xrotation
	JOINT Spine
	{
		OFFSET	0.0720	7.2573	-0.7897
		CHANNELS 3 Zrotation Yrotation Xrotation
		JOINT Spine1
		{
			OFFSET	0.0000	8.4669	-0.9212
			CHANNELS 3 Zrotation Yrotation Xrotation
			JOINT Spine2
			{
				OFFSET	0.0000	29.0594	-1.0529
				CHANNELS 3 Zrotation Yrotation Xrotation
				JOINT Neck
				{
					OFFSET	-0.0000	14.0333	7.5204
					CHANNELS 3 Zrotation Yrotation Xrotation
					JOINT Head
					{
						OFFSET	0.0000	8.1985	5.7031
						CHANNELS 3 Zrotation Yrotation Xrotation
						End Site
						{
							OFFSET -0.0000 17.7608 13.3327
						}
					}
				}
				JOINT LeftShoulder
				{
					OFFSET	12.5849	11.5706	-1.3380
					CHANNELS 3 Zrotation Yrotation Xrotation
					JOINT LeftArm
					{
						OFFSET	12.0020	-9.3005	1.9651
						CHANNELS 3 Zrotation Yrotation Xrotation
						JOINT LeftForeArm
						{
							OFFSET	11.3305	-32.2015	0.4832
							CHANNELS 3 Zrotation Yrotation Xrotation
							JOINT LeftHand
							{
								OFFSET	13.5298	-37.9914	7.1643
								CHANNELS 3 Zrotation Yrotation Xrotation
								JOINT LeftHandThumb1
								{
									OFFSET	-7.4862	-11.5241	7.3723
									CHANNELS 3 Zrotation Yrotation Xrotation
									JOINT LeftHandThumb2
									{
										OFFSET	-1.3139	-1.8606	0.6509
										CHANNELS 3 Zrotation Yrotation Xrotation
										JOINT LeftHandThumb3
										{
											OFFSET	-1.2932	-2.2705	0.7801
											CHANNELS 3 Zrotation Yrotation Xrotation
											End Site
											{
												OFFSET -3.2656 -4.5911 2.7133
											}
										}
									}
								}
								JOINT LeftHandIndex1
								{
									OFFSET	-0.0293	-18.8303	2.3636
									CHANNELS 3 Zrotation Yrotation Xrotation
									JOINT LeftHandIndex2
									{
										OFFSET	-1.1093	-4.3114	-1.5417
										CHANNELS 3 Zrotation Yrotation Xrotation
										JOINT LeftHandIndex3
										{
											OFFSET	-0.8957	-2.5744	-0.9486
											CHANNELS 3 Zrotation Yrotation Xrotation
											End Site
											{
												OFFSET -2.2427 -5.4400 -1.7746
											}
										}
									}
								}
								JOINT LeftHandMiddle1
								{
									OFFSET	1.4214	-17.8450	-2.0009
									CHANNELS 3 Zrotation Yrotation Xrotation
									JOINT LeftHandMiddle2
									{
										OFFSET	-0.7725	-4.5062	-1.8888
										CHANNELS 3 Zrotation Yrotation Xrotation
										JOINT LeftHandMiddle3
										{
											OFFSET	-0.7919	-2.9550	-1.3457
											CHANNELS 3 Zrotation Yrotation Xrotation
											End Site
											{
												OFFSET -0.7011 -3.9405 -1.9720
											}
										}
									}
								}
								JOINT LeftHandRing1
								{
									OFFSET	1.6587	-15.2123	-5.8385
									CHANNELS 3 Zrotation Yrotation Xrotation
									JOINT LeftHandRing2
									{
										OFFSET	-1.3425	-3.0189	-1.2344
										CHANNELS 3 Zrotation Yrotation Xrotation
										JOINT LeftHandRing3
										{
											OFFSET	-0.9931	-2.4882	-1.2613
											CHANNELS 3 Zrotation Yrotation Xrotation
											End Site
											{
												OFFSET -2.5257 -3.8753 -1.6972
											}
										}
									}
								}
								JOINT LeftHandPinky1
								{
									OFFSET	1.0264	-11.9080	-8.2280
									CHANNELS 3 Zrotation Yrotation Xrotation
									JOINT LeftHandPinky2
									{
										OFFSET	-1.2572	-2.9054	-1.0239
										CHANNELS 3 Zrotation Yrotation Xrotation
										JOINT LeftHandPinky3
										{
											OFFSET	-1.5465	-2.4346	-0.8778
											CHANNELS 3 Zrotation Yrotation Xrotation
											End Site
											{
												OFFSET -3.5835 -4.1082 -2.1158
											}
										}
									}
								}
							}
						}
					}
				}
				JOINT RightShoulder
				{
					OFFSET	-12.5849	11.5707	-1.3380
					CHANNELS 3 Zrotation Yrotation Xrotation
					JOINT RightArm
					{
						OFFSET	-12.0019	-9.3005	1.9651
						CHANNELS 3 Zrotation Yrotation Xrotation
						JOINT RightForeArm
						{
							OFFSET	-11.3305	-32.2016	0.4832
							CHANNELS 3 Zrotation Yrotation Xrotation
							JOINT RightHand
							{
								OFFSET	-13.5299	-37.9914	7.1643
								CHANNELS 3 Zrotation Yrotation Xrotation
								JOINT RightHandThumb1
								{
									OFFSET	7.4862	-11.5241	7.3723
									CHANNELS 3 Zrotation Yrotation Xrotation
									JOINT RightHandThumb2
									{
										OFFSET	1.3139	-1.8607	0.6508
										CHANNELS 3 Zrotation Yrotation Xrotation
										JOINT RightHandThumb3
										{
											OFFSET	1.2932	-2.2705	0.7801
											CHANNELS 3 Zrotation Yrotation Xrotation
											End Site
											{
												OFFSET 3.2655 -4.5911 2.7134
											}
										}
									}
								}
								JOINT RightHandIndex1
								{
									OFFSET	0.0292	-18.8304	2.3636
									CHANNELS 3 Zrotation Yrotation Xrotation
									JOINT RightHandIndex2
									{
										OFFSET	1.1093	-4.3114	-1.5418
										CHANNELS 3 Zrotation Yrotation Xrotation
										JOINT RightHandIndex3
										{
											OFFSET	0.8957	-2.5744	-0.9486
											CHANNELS 3 Zrotation Yrotation Xrotation
											End Site
											{
												OFFSET 2.2426 -5.4400 -1.7746
											}
										}
									}
								}
								JOINT RightHandMiddle1
								{
									OFFSET	-1.4215	-17.8451	-2.0009
									CHANNELS 3 Zrotation Yrotation Xrotation
									JOINT RightHandMiddle2
									{
										OFFSET	0.7725	-4.5062	-1.8888
										CHANNELS 3 Zrotation Yrotation Xrotation
										JOINT RightHandMiddle3
										{
											OFFSET	0.7919	-2.9551	-1.3457
											CHANNELS 3 Zrotation Yrotation Xrotation
											End Site
											{
												OFFSET 0.7011 -3.9405 -1.9720
											}
										}
									}
								}
								JOINT RightHandRing1
								{
									OFFSET	-1.6588	-15.2123	-5.8385
									CHANNELS 3 Zrotation Yrotation Xrotation
									JOINT RightHandRing2
									{
										OFFSET	1.3425	-3.0189	-1.2345
										CHANNELS 3 Zrotation Yrotation Xrotation
										JOINT RightHandRing3
										{
											OFFSET	0.9931	-2.4882	-1.2613
											CHANNELS 3 Zrotation Yrotation Xrotation
											End Site
											{
												OFFSET 2.5257 -3.8753 -1.6971
											}
										}
									}
								}
								JOINT RightHandPinky1
								{
									OFFSET	-1.0265	-11.9079	-8.2279
									CHANNELS 3 Zrotation Yrotation Xrotation
									JOINT RightHandPinky2
									{
										OFFSET	1.2572	-2.9054	-1.0239
										CHANNELS 3 Zrotation Yrotation Xrotation
										JOINT RightHandPinky3
										{
											OFFSET	1.5466	-2.4346	-0.8779
											CHANNELS 3 Zrotation Yrotation Xrotation
											End Site
											{
												OFFSET 3.5836 -4.1082 -2.1158
											}
										}
									}
								}
							}
						}
					}
				}
			}
		}
	}
	JOINT LeftUpLeg
	{
		OFFSET	13.0269	-6.3363	-1.0928
		CHANNELS 3 Zrotation Yrotation Xrotation
		JOINT LeftLeg
		{
			OFFSET	4.8926	-45.7339	10.2648
			CHANNELS 3 Zrotation Yrotation Xrotation
			JOINT LeftFoot
			{
				OFFSET	4.6406	-53.6039	-11.2919
				CHANNELS 3 Zrotation Yrotation Xrotation
				JOINT LeftToeBase
				{
					OFFSET	0.1922	-14.0097	16.3640
					CHANNELS 3 Zrotation Yrotation Xrotation
					End Site
					{
						OFFSET -1.7847 -0.5617 9.4748
					}
				}
			}
		}
	}
	JOINT RightUpLeg
	{
		OFFSET	-12.8830	-6.3363	-1.0928
		CHANNELS 3 Zrotation Yrotation Xrotation
		JOINT RightLeg
		{
			OFFSET	-4.8926	-45.7339	10.2648
			CHANNELS 3 Zrotation Yrotation Xrotation
			JOINT RightFoot
			{
				OFFSET	-4.6406	-53.6039	-11.2919
				CHANNELS 3 Zrotation Yrotation Xrotation
				JOINT RightToeBase
				{
					OFFSET	-0.1922	-14.0097	16.3640
					CHANNELS 3 Zrotation Yrotation Xrotation
					End Site
					{
						OFFSET 1.7847 -0.5617 9.4748
					}
				}
			}
		}
	}
}
MOTION
Frames: 7
Frame Time: 0.0333333
-1.6574 117.6392 1.0044 -1.5544 -0.0381 -0.3790 0.4806 -0.2735 -0.0867 0.0256 -2.0667 -0.4204 0.0272 -2.0605 -0.4245 -1.3394 1.6039 -1.6877 2.2101 -0.6202 9.2690 15.6271 11.9085 2.2513 -14.7966 -17.4250 7.6898 1.1216 -7.2404 -20.8717 4.2579 -3.5697 -1.5393 17.7926 11.5470 14.4574 -1.8576 -10.9635 12.2000 7.8129 -3.6379 10.1653 -2.2076 1.4430 -9.8135 -24.3364 8.0838 5.6532 -8.8147 1.6768 4.8592 -13.0279 2.8217 -11.2011 -12.9480 5.3262 2.5819 -17.4503 8.0907 0.6481 -5.8462 3.2130 -9.2647 -14.9411 6.7377 -0.9279 -0.7083 -2.6494 5.6865 -14.2677 2.3886 -0.3833 -7.8889 2.1228 -0.1640 0.4245 2.0838 -3.0501 -19.7679 -2.4076 0.8025 22.1878 20.6837 6.3945 -0.6774 5.9567 -17.0076 -15.4316 -6.7970 -3.3020 -16.0971 7.5611 20.3769 5.5771 7.9467 -0.7196 -7.8207 1.9603 7.5886 -10.1142 1.3163 -7.5987 29.6932 -10.1541 6.3123 6.1760 -0.8565 4.2629 2.6620 -0.0594 -7.4134 18.7660 -7.8919 3.5852 8.8356 -6.2668 -0.4257 -0.6494 -0.6194 -6.9236 18.0793 -7.8644 -0.2846 -2.6273 1.9474 5.9483 8.8688 -0.8886 -0.3487 5.9595 -0.4995 3.3831 -0.8812 -1.9870 -3.1597 -1.0906 2.7930 -8.1882 4.4626 11.2015 17.7481 -0.2944 1.2736 -9.1377 0.0000 -0.0000 -0.0498 2.1899 -12.5912 -9.1382 -2.6977 -6.8624 14.9141 1.0947 -2.7767 -5.3796 0.0000 -0.0000 -0.1142 
-1.1881 117.5878 0.9382 -1.6961 -0.2801 -0.4460 0.5105 -0.2588 -0.0442 -0.0007 -2.0459 -0.3529 0.0023 -2.0401 -0.3564 -1.2601 1.5477 -1.6626 2.3106 -0.6737 9.3533 15.5051 11.8816 2.2369 -14.6149 -17.7927 7.5069 1.1037 -7.1937 -20.7289 4.1767 -3.3946 -1.4350 17.7994 11.5411 14.4699 -1.8600 -10.9345 12.1896 7.8103 -3.6289 10.1508 -2.3463 1.4447 -9.7030 -24.4064 8.1105 5.6624 -8.9403 1.7164 4.8872 -13.1645 2.8427 -11.1425 -13.0523 5.3713 2.6016 -17.4047 8.0699 0.6410 -5.9352 3.2390 -9.2722 -15.0290 6.7689 -0.9097 -0.6866 -2.6575 5.6796 -14.5930 2.4822 -0.3852 -8.0827 2.1611 -0.1224 0.4238 2.0839 -3.0500 -19.6106 -2.2400 0.7745 22.0951 20.5615 6.1606 -0.6719 5.9389 -16.9547 -15.4392 -6.8840 -3.3637 -16.1393 7.8288 20.4794 5.6610 7.6561 -0.8625 -7.8040 1.8909 7.4747 -10.1378 1.3431 -7.5105 29.8741 -10.2250 6.3300 6.1281 -0.8420 4.2514 3.1525 -0.1105 -7.1838 18.7023 -7.8632 3.5758 8.6806 -6.2638 -0.4426 -0.2645 -0.6183 -6.7073 17.9415 -7.8140 -0.3108 -2.7527 1.9309 5.9490 9.3959 -0.9196 -0.0944 6.0101 -0.5128 3.3957 -1.0787 -1.9481 -3.2109 -1.1841 2.6298 -8.2562 4.4499 11.2221 18.0574 -0.0815 1.6478 -9.3636 0.0000 -0.0000 -0.0665 2.1143 -12.7680 -9.1559 -2.7031 -6.7092 14.8718 1.2729 -2.5560 -5.1786 0.0000 0.0000 -0.2383 
-0.7080 117.5035 0.8597 -1.8237 -0.5267 -0.5289 0.5298 -0.2378 0.0107 -0.0330 -2.0246 -0.2655 -0.0283 -2.0194 -0.2682 -1.1734 1.4835 -1.6517 2.4435 -0.7475 9.3938 15.3734 11.7782 2.2091 -14.4408 -18.3577 7.3002 1.0816 -7.1357 -20.5521 4.0983 -3.0958 -1.3546 17.8013 11.5472 14.4591 -1.8606 -10.9442 12.1935 7.8072 -3.6387 10.1656 -2.4520 1.4504 -9.6374 -24.5194 8.1536 5.6773 -9.0970 1.7660 4.9221 -13.2639 2.8598 -11.1106 -13.1897 5.4307 2.6274 -17.3705 8.0543 0.6356 -5.9962 3.2589 -9.2822 -15.1345 6.8064 -0.8879 -0.6701 -2.6637 5.6743 -14.8861 2.5609 -0.3736 -8.2905 2.2023 -0.0779 0.4237 2.0839 -3.0499 -19.4090 -1.9846 0.7353 21.9353 20.5010 5.8583 -0.6643 5.9143 -16.8817 -15.4424 -7.0464 -3.3895 -16.1210 8.0589 20.5748 5.7283 7.4196 -0.9794 -7.7912 1.8323 7.3792 -10.0936 1.3592 -7.4231 30.0553 -10.2960 6.3474 6.0592 -0.8211 4.2350 3.2954 -0.1168 -7.0691 18.9147 -7.9588 3.6069 8.6216 -6.2335 -0.4573 -0.1541 -0.5987 -6.6008 18.1849 -7.9031 -0.2646 -2.7796 1.9419 5.9387 9.5711 -0.9129 0.0287 6.1991 -0.5624 3.4425 -1.1217 -1.9397 -3.2221 -1.3054 2.5151 -8.3658 4.4710 11.2385 18.4545 0.1287 1.9724 -9.6182 0.0000 0.0000 -0.0844 2.0149 -12.9463 -9.2262 -2.7217 -6.5531 14.9400 1.4631 -2.3208 -5.0150 -0.0000 0.0000 -0.2934 
-0.2195 117.3908 0.7727 -1.9436 -0.7692 -0.6235 0.5386 -0.2102 0.0767 -0.0729 -2.0034 -0.1601 -0.0665 -1.9989 -0.1617 -1.0748 1.4096 -1.6518 2.6245 -0.8487 9.3936 15.2552 11.5849 2.1674 -14.2888 -19.1197 7.0742 1.0566 -7.0692 -20.3496 4.0312 -2.6868 -1.3081 17.7963 11.5672 14.4213 -1.8578 -11.0050 12.2161 7.8049 -3.6711 10.2155 -2.4947 1.4565 -9.6266 -24.7021 8.2233 5.7013 -9.2989 1.8299 4.9668 -13.2885 2.8640 -11.1026 -13.3774 5.5119 2.6624 -17.3582 8.0487 0.6337 -5.9976 3.2570 -9.2768 -15.2642 6.8525 -0.8612 -0.6640 -2.6660 5.6723 -15.0918 2.5974 -0.3226 -8.5104 2.2461 -0.0310 0.4245 2.0838 -3.0501 -19.1379 -1.6062 0.6827 21.6675 20.4992 5.5260 -0.6587 5.8957 -16.8267 -15.4432 -7.2935 -3.3867 -16.0540 8.1967 20.6411 5.7635 7.2924 -1.0426 -7.7854 1.7983 7.3244 -10.0115 1.3623 -7.3623 30.2520 -10.3731 6.3660 5.9887 -0.7998 4.2182 3.1023 -0.0827 -7.0839 19.3902 -8.1731 3.6751 8.6673 -6.1856 -0.4661 -0.2964 -0.5704 -6.6147 18.7825 -8.1226 -0.1527 -2.7077 1.9759 5.9207 9.4244 -0.8804 0.0115 6.4822 -0.6370 3.5123 -1.0100 -1.9616 -3.1931 -1.4497 2.4616 -8.5160 4.5275 11.2474 18.9273 0.3360 2.2376 -9.8961 -0.0000 0.0000 -0.0937 1.8969 -13.1056 -9.3362 -2.7531 -6.4104 15.0965 1.6673 -2.0815 -4.8828 -0.0000 0.0000 -0.2831 
0.2747 117.2544 0.6795 -2.0607 -1.0017 -0.7230 0.5378 -0.1768 0.1515 -0.1208 -1.9837 -0.0406 -0.1124 -1.9801 -0.0407 -0.9630 1.3260 -1.6563 2.8503 -0.9778 9.3555 15.1620 11.3113 2.1145 -14.1636 -20.0487 6.8304 1.0305 -6.9989 -20.1363 3.9770 -2.2001 -1.3026 17.7832 11.6002 14.3584 -1.8506 -11.1199 12.2582 7.8053 -3.7258 10.3005 -2.4605 1.4571 -9.6583 -24.9651 8.3238 5.7353 -9.5509 1.9100 5.0223 -13.2205 2.8491 -11.1038 -13.6216 5.6178 2.7075 -17.3726 8.0552 0.6360 -5.9236 3.2226 -9.2395 -15.4204 6.9082 -0.8291 -0.6708 -2.6634 5.6745 -15.1840 2.5767 -0.2152 -8.7405 2.2921 0.0179 0.4257 2.0835 -3.0504 -18.7872 -1.0922 0.6172 21.2682 20.5605 5.1971 -0.6585 5.8952 -16.8252 -15.4443 -7.5979 -3.3690 -15.9726 8.2191 20.6644 5.7621 7.2906 -1.0439 -7.7866 1.7940 7.3185 -9.9448 1.3528 -7.3587 30.4882 -10.4658 6.3881 5.9449 -0.7866 4.2077 2.6767 -0.0262 -7.2162 20.0349 -8.4646 3.7647 8.7959 -6.1386 -0.4659 -0.5933 -0.5501 -6.7325 19.5927 -8.4221 -0.0047 -2.5694 2.0202 5.9013 9.0840 -0.8468 -0.1221 6.9645 -0.7650 3.6304 -0.7969 -2.0037 -3.1379 -1.6079 2.4668 -8.7055 4.6107 11.2503 19.4606 0.5434 2.4474 -10.1914 0.0000 -0.0000 -0.0895 1.7675 -13.2342 -9.4784 -2.8010 -6.2958 15.3209 1.8872 -1.8394 -4.7756 -0.0000 0.0000 -0.2131 
0.7721 117.0988 0.5803 -2.1769 -1.2220 -0.8186 0.5298 -0.1395 0.2320 -0.1755 -1.9678 0.0881 -0.1650 -1.9651 0.0897 -0.8392 1.2347 -1.6568 3.0992 -1.1261 9.2838 15.0958 10.9840 2.0549 -14.0642 -21.0773 6.5705 1.0056 -6.9316 -19.9319 3.9351 -1.6810 -1.3460 17.7624 11.6424 14.2773 -1.8395 -11.2819 12.3171 7.8094 -3.7987 10.4145 -2.3454 1.4457 -9.7080 -25.3036 8.4534 5.7785 -9.8500 2.0054 5.0878 -13.0623 2.8131 -11.0977 -13.9180 5.7466 2.7617 -17.4131 8.0737 0.6423 -5.7806 3.1553 -9.1655 -15.6005 6.9725 -0.7924 -0.6905 -2.6560 5.6808 -15.1769 2.5036 -0.0535 -8.9788 2.3400 0.0684 0.4266 2.0833 -3.0507 -18.3663 -0.4574 0.5426 20.7427 20.6911 4.8900 -0.6659 5.9195 -16.8972 -15.4482 -7.9106 -3.3533 -15.9194 8.1355 20.6416 5.7301 7.3929 -0.9940 -7.7925 1.8160 7.3552 -9.9433 1.3331 -7.4327 30.7819 -10.5812 6.4150 5.9496 -0.7880 4.2088 2.1804 0.0281 -7.4289 20.7097 -8.7707 3.8551 8.9619 -6.1112 -0.4565 -0.9066 -0.5546 -6.9160 20.4155 -8.7284 0.1415 -2.4171 2.0588 5.8869 8.7289 -0.8396 -0.3236 7.4552 -0.8962 3.7495 -0.5661 -2.0495 -3.0783 -1.7692 2.5138 -8.9344 4.7040 11.2531 20.0393 0.7553 2.6187 -10.4985 0.0000 -0.0000 -0.0720 1.6334 -13.3390 -9.6530 -2.8685 -6.2160 15.5950 2.1217 -1.5835 -4.6843 0.0000 -0.0000 -0.0960 
1.2700 116.9303 0.4728 -2.2930 -1.4327 -0.9020 0.5180 -0.1005 0.3154 -0.2344 -1.9571 0.2212 -0.2216 -1.9555 0.2247 -0.7064 1.1395 -1.6453 3.3394 -1.2763 9.1859 15.0525 10.6329 1.9937 -13.9893 -22.1086 6.2978 0.9848 -6.8741 -19.7578 3.9055 -1.1770 -1.4465 17.7361 11.6890 14.1875 -1.8257 -11.4764 12.3877 7.8173 -3.8841 10.5486 -2.1476 1.4168 -9.7540 -25.7030 8.6066 5.8285 -10.1885 2.1138 5.1613 -12.8289 2.7583 -11.0770 -14.2557 5.8937 2.8227 -17.4763 8.1026 0.6521 -5.5927 3.0660 -9.0661 -15.7991 7.0435 -0.7521 -0.7215 -2.6444 5.6907 -15.1189 2.4019 0.1394 -9.2234 2.3893 0.1200 0.4264 2.0834 -3.0506 -17.8985 0.2638 0.4645 20.1249 20.8889 4.6058 -0.6808 5.9677 -17.0405 -15.4583 -8.1848 -3.3559 -15.9297 7.9782 20.5793 5.6797 7.5554 -0.9145 -7.7997 1.8553 7.4190 -10.0255 1.3068 -7.5820 31.1308 -10.7184 6.4461 6.0030 -0.8041 4.2216 1.7988 0.0561 -7.6645 21.2718 -9.0265 3.9276 9.1066 -6.1141 -0.4410 -1.0954 -0.5949 -7.1132 21.0570 -8.9686 0.2524 -2.3055 2.0787 5.8823 8.5382 -0.8798 -0.5311 7.8467 -1.0017 3.8437 -0.4016 -2.0823 -3.0359 -1.9238 2.5804 -9.1984 4.7888 11.2637 20.6412 0.9761 2.7761 -10.8082 -0.0000 -0.0000 -0.0441 1.5035 -13.4450 -9.8627 -2.9546 -6.1621 15.8983 2.3640 -1.2987 -4.5967 0.0000 0.0000 -0.0000 
